<svg version="1.1" id="Layer_1" xmlns="http://www.w3.org/2000/svg" xmlns:xlink="http://www.w3.org/1999/xlink" x="0px" y="0px"
	 width="100%" viewBox="0 0 1000 1000" enable-background="new 0 0 1000 1000" xml:space="preserve">
<path fill="#f99e43" opacity="1.000000" stroke="none" 
	d="
M1.249065,51.247780 
	C1.000000,35.402191 1.093433,19.803308 0.914417,4.207553 
	C0.881949,1.379009 1.561379,0.894693 4.265666,0.922952 
	C19.529940,1.082459 34.796741,1.000000 50.531342,1.000000 
	C54.416401,3.905615 53.462280,7.762359 52.802128,11.239263 
	C51.553745,17.814270 49.437096,24.195229 45.324432,29.594194 
	C42.660271,33.091618 43.154999,35.561695 46.216297,38.573708 
	C61.653954,53.762833 76.690353,69.364601 92.286247,84.387192 
	C142.917770,133.157486 191.860291,183.621887 241.820328,233.064484 
	C248.540543,239.715088 248.513245,239.753830 255.297409,232.949265 
	C303.641418,184.459747 352.419952,136.401016 400.413239,87.566338 
	C417.918854,69.753822 435.423523,51.938801 453.062500,34.257896 
	C455.686737,31.627380 456.375427,29.345753 454.430542,25.950748 
	C451.347839,20.569540 449.388062,14.698688 448.857391,8.478322 
	C448.651276,6.062937 448.215790,3.408487 450.751892,1.249505 
	C484.020905,1.000000 517.041809,1.000000 550.531372,1.000000 
	C554.414490,3.907537 553.458679,7.762881 552.802002,11.243209 
	C551.592468,17.653793 549.505920,23.854578 545.616333,29.201778 
	C543.202759,32.519806 543.605774,34.948696 546.489319,37.863251 
	C556.098206,47.575359 566.302795,56.666676 575.979004,66.292885 
	C632.096680,122.120453 687.914429,178.248611 743.942017,234.166656 
	C745.121521,235.343872 746.364136,236.465103 747.475708,237.701660 
	C749.944214,240.447830 752.268616,240.227173 754.629150,237.580750 
	C755.403687,236.712418 756.279907,235.933197 757.104004,235.107620 
	C807.377197,184.747543 857.955444,134.691071 907.990845,84.095558 
	C923.562927,68.349113 938.794739,52.258095 954.578430,36.716549 
	C957.411255,33.927151 958.070557,31.648949 955.693848,28.107664 
	C951.846069,22.374725 949.684326,15.845778 948.895508,8.977740 
	C948.602539,6.426629 948.091736,3.580704 950.751648,1.249856 
	C966.597778,1.000000 982.196716,1.093428 997.792419,0.914420 
	C1000.620911,0.881955 1001.105347,1.561319 1001.077087,4.265656 
	C1000.917542,19.529934 1001.000000,34.796738 1001.000000,50.531342 
	C998.283142,54.316036 994.566650,53.467121 991.245483,52.898346 
	C985.147583,51.853996 979.338196,49.751602 974.007812,46.501728 
	C967.954285,42.810966 967.939087,42.791870 962.775391,47.956776 
	C938.268127,72.470009 913.573975,96.800728 889.329468,121.571266 
	C848.422546,163.365875 807.018921,204.663773 765.720215,246.067383 
	C760.996643,250.802887 760.941833,251.260559 765.843445,256.027771 
	C832.976562,321.319672 898.546448,388.182098 964.921875,454.235138 
	C968.025940,457.324127 970.412109,458.057770 974.328613,455.446411 
	C980.053345,451.629333 986.614380,449.497314 993.519714,448.858551 
	C995.932190,448.635345 998.589294,448.217743 1000.750000,450.751678 
	C1001.000000,484.020905 1001.000000,517.041809 1001.000000,550.531372 
	C998.092834,554.414612 994.236511,553.461731 990.757812,552.802002 
	C984.180603,551.554504 977.798950,549.433594 972.398865,545.322510 
	C968.895630,542.655396 966.427917,543.160706 963.414856,546.215454 
	C947.851990,561.993042 932.135437,577.619263 916.479004,593.304871 
	C866.802185,643.074158 816.966858,692.684937 767.304871,742.469055 
	C766.128113,743.648682 764.973572,744.851318 763.788330,746.021423 
	C761.688782,748.094116 761.849060,750.064697 763.885376,752.064514 
	C764.835876,752.997925 765.753662,753.966125 766.695801,754.909058 
	C832.535950,820.799622 898.397888,886.668457 964.295654,952.501404 
	C969.568298,957.768921 969.549622,957.718811 976.018005,954.390381 
	C981.984131,951.320496 988.197815,948.984375 995.014893,948.793579 
	C997.006653,948.737854 999.070251,948.661865 1000.750305,950.751709 
	C1001.000000,966.597839 1000.906555,982.196716 1001.085571,997.792480 
	C1001.118042,1000.620972 1000.438660,1001.105347 997.734375,1001.077087 
	C982.470093,1000.917603 967.203247,1001.000000 951.468628,1001.000000 
	C947.589050,998.093384 948.539490,994.240051 949.195618,990.760193 
	C950.468201,984.011658 952.658142,977.459106 956.950684,971.995422 
	C959.897095,968.245117 959.102539,965.745483 955.953979,962.644775 
	C941.474609,948.385132 927.407349,933.701660 912.767883,919.610840 
	C860.682007,869.477112 810.390259,817.542664 758.966064,766.746216 
	C757.306946,765.107361 755.647888,763.467834 754.004822,761.813538 
	C751.942627,759.737183 749.967957,759.793884 747.969666,761.864929 
	C738.493713,771.685852 728.175110,780.685181 719.385193,791.175232 
	C717.562683,793.350281 715.494263,795.288635 713.493286,797.290344 
	C658.966370,851.837219 604.371277,906.315918 549.851868,960.870300 
	C548.556580,962.166321 547.331482,963.542480 545.963440,964.753662 
	C543.358521,967.059753 543.275818,969.422058 545.266418,972.195923 
	C549.219482,977.704773 551.490417,983.982788 552.763794,990.558167 
	C553.406677,993.877625 554.329956,997.502441 551.248413,1000.749451 
	C517.979126,1001.000000 484.958221,1001.000000 451.468658,1001.000000 
	C447.682281,998.285706 448.534882,994.570068 449.100891,991.250671 
	C450.140472,985.153992 452.260406,979.355286 455.485718,974.015320 
	C458.759674,968.594727 458.777496,968.569702 454.163086,963.955872 
	C431.782379,941.577942 409.391876,919.209717 387.055115,896.787903 
	C378.002869,887.701111 369.154694,878.396057 359.813568,869.614929 
	C324.370789,836.296631 290.859863,801.035278 256.184784,766.946716 
	C251.672745,762.510986 251.331558,762.472717 246.990189,766.804260 
	C193.100769,820.571167 139.188202,874.316650 85.618401,928.400208 
	C73.090813,941.047913 60.653027,953.811951 48.152542,966.499512 
	C45.298553,969.396240 44.946663,971.710266 47.086971,975.182800 
	C50.432156,980.610291 52.421566,986.666504 53.106064,993.027100 
	C53.380936,995.581238 53.909824,998.422607 51.248077,1000.750610 
	C35.402191,1001.000000 19.803308,1000.906555 4.207553,1001.085571 
	C1.379056,1001.118103 0.894691,1000.438660 0.922951,997.734375 
	C1.082461,982.470093 1.000000,967.203247 1.000000,951.468628 
	C3.906817,947.585632 7.762278,948.539490 11.241620,949.196716 
	C17.990807,950.471558 24.542465,952.661987 30.009560,956.956726 
	C33.750622,959.895508 36.243034,959.091064 39.366463,955.964233 
	C73.161934,922.132202 107.390579,888.718445 140.613007,854.332275 
	C171.407242,822.459290 203.232224,791.632019 234.251373,759.995850 
	C235.184540,759.044067 236.140472,758.114685 237.074310,757.163574 
	C241.486038,752.670349 241.525513,752.325134 237.167328,747.965271 
	C203.477997,714.262573 170.221130,680.113098 135.992828,646.967834 
	C102.837952,614.862061 70.589180,581.862549 37.708664,549.491882 
	C32.399509,544.265076 32.445824,544.272461 25.982412,547.613464 
	C20.170290,550.617798 14.102525,552.879272 7.484383,553.193115 
	C5.351250,553.294312 3.084353,553.497925 1.249891,551.248352 
	C1.000000,517.979126 1.000000,484.958221 1.000000,451.468658 
	C3.904464,447.582092 7.750488,448.572937 11.238997,449.193237 
	C17.164640,450.246918 22.846991,452.275604 27.971512,455.503784 
	C30.589487,457.152985 32.608749,456.769623 34.597160,454.640930 
	C35.505653,453.668396 36.488400,452.763763 37.431347,451.822174 
	C73.027542,416.276215 108.968613,381.061493 144.008209,344.976746 
	C173.712860,314.386047 204.193253,284.584503 234.067963,254.174332 
	C238.493073,249.669907 238.531372,249.329819 234.183960,244.980164 
	C168.476868,179.239166 102.753822,113.514084 37.064426,47.755451 
	C33.956276,44.644016 31.519218,43.877159 27.667799,46.579739 
	C22.719076,50.052303 16.873222,51.827625 10.947663,52.863369 
	C7.794242,53.414558 4.297694,54.292583 1.249065,51.247780 
z"/>
<path fill="#ffe284" opacity="1.000000" stroke="none" 
	d="
M551.468628,1001.000000 
	C551.591064,989.567078 548.215332,979.410767 541.013428,970.559021 
	C539.658386,968.893555 539.722717,967.670105 541.195496,966.296387 
	C541.925659,965.615417 542.610718,964.886047 543.317261,964.179626 
	C600.350403,907.147339 657.538940,850.268921 714.284668,792.952148 
	C725.503662,781.620300 736.758728,770.288452 747.702759,758.676331 
	C750.240356,755.983948 751.559082,755.910767 754.254395,758.616638 
	C804.119019,808.676453 853.833374,858.891418 904.199707,908.443115 
	C922.807068,926.749695 941.212158,945.266785 960.004028,963.385010 
	C963.077759,966.348511 962.821228,968.162842 960.301514,971.393982 
	C953.792358,979.740662 950.449524,989.341125 951.000000,1000.544495 
	C817.979126,1001.000000 684.958191,1001.000000 551.468628,1001.000000 
z"/>
<path fill="#ffe284" opacity="1.000000" stroke="none" 
	d="
M1.000000,551.468628 
	C11.136734,551.510986 20.430180,548.985535 28.662998,543.016602 
	C31.373957,541.051086 33.011372,541.349060 35.461575,543.818298 
	C64.672707,573.256165 93.655884,602.936218 123.460823,631.764954 
	C163.166931,670.170471 201.723358,709.718628 241.034439,748.512878 
	C242.337204,749.798523 243.769623,750.952820 245.257858,752.271362 
	C215.490356,782.027649 185.654251,811.077881 156.702332,840.984070 
	C118.047951,880.912476 78.257019,919.698303 39.319862,959.335999 
	C35.994328,962.721436 34.122833,963.027100 30.198782,959.981873 
	C22.021807,953.636414 12.477777,950.410339 1.455492,950.999939 
	C1.000000,817.979126 1.000000,684.958191 1.000000,551.468628 
z"/>
<path fill="#ffe284" opacity="1.000000" stroke="none" 
	d="
M1001.000000,950.531372 
	C990.458069,950.287781 980.947571,953.422241 972.452026,959.371460 
	C969.995239,961.091858 969.023071,960.630676 967.276245,958.840332 
	C960.644836,952.043884 953.878052,945.379517 947.164062,938.663574 
	C885.089905,876.570679 823.035400,814.458130 760.876953,752.449707 
	C758.194641,749.773926 757.880493,748.474792 760.734619,745.628113 
	C828.797119,677.742249 896.757446,609.753906 964.687195,541.735107 
	C966.698303,539.721436 968.063416,538.900269 970.660950,541.043884 
	C979.160522,548.058167 989.009155,551.436707 1000.544556,551.000000 
	C1001.000000,684.020874 1001.000000,817.041809 1001.000000,950.531372 
z"/>
<path fill="#ffe284" opacity="1.000000" stroke="none" 
	d="
M950.531372,1.000000 
	C950.346191,12.964789 954.259216,23.380302 961.823364,32.723145 
	C950.758850,43.768673 939.492065,54.644009 928.636414,65.915314 
	C872.155701,124.558922 813.670532,181.206589 756.414185,239.076996 
	C751.025391,244.523544 751.000000,244.499405 745.407104,238.905991 
	C687.102661,180.596115 628.907837,122.175789 570.380615,64.090378 
	C561.207275,54.986279 551.844482,46.032482 542.504883,37.076427 
	C540.099060,34.769417 539.541321,33.393787 542.005737,30.203243 
	C548.337952,22.005140 551.585510,12.480446 551.000000,1.455481 
	C684.020874,1.000000 817.041809,1.000000 950.531372,1.000000 
z"/>
<path fill="#ffe284" opacity="1.000000" stroke="none" 
	d="
M1001.000000,450.531342 
	C989.036011,450.347656 978.619995,454.256714 968.994263,462.058014 
	C968.183960,461.067566 967.420288,459.951904 966.480835,459.011810 
	C907.730164,400.220520 849.101868,341.305573 790.064331,282.803650 
	C780.409485,273.236389 770.766113,263.601929 760.750610,254.391159 
	C757.699890,251.585602 758.274597,250.106110 760.900757,247.494263 
	C791.960449,216.603210 823.351440,186.027161 853.763367,154.507721 
	C889.950256,117.003159 927.399841,80.772339 963.866150,43.558105 
	C966.712830,40.653030 968.297974,39.163532 972.630737,42.566944 
	C980.432922,48.695602 989.868835,51.659298 1000.544556,51.000046 
	C1001.000000,184.020889 1001.000000,317.041779 1001.000000,450.531342 
z"/>
<path fill="#ffe284" opacity="1.000000" stroke="none" 
	d="
M51.468658,1001.000000 
	C51.647991,990.660828 48.748455,981.273438 42.876614,972.890564 
	C41.207497,970.507751 41.841793,969.556458 43.568195,967.856445 
	C54.248512,957.338989 64.985748,946.870056 75.380234,936.073242 
	C131.854263,877.413086 190.363617,820.779297 247.593567,762.872681 
	C248.858948,761.592346 249.886963,760.077393 251.111069,758.566589 
	C282.535645,790.005493 312.999115,821.279175 344.345795,851.640930 
	C382.958221,889.040039 420.487030,927.515076 458.810181,965.195435 
	C461.510803,967.850891 461.936737,969.125671 459.392303,972.584900 
	C453.495483,980.602173 450.346985,989.869385 451.000000,1000.544495 
	C317.979095,1001.000000 184.958206,1001.000000 51.468658,1001.000000 
z"/>
<path fill="#ffe284" opacity="1.000000" stroke="none" 
	d="
M450.531342,1.000000 
	C450.500916,10.955571 452.915100,20.100531 458.729523,28.248943 
	C460.347748,30.516771 458.864716,31.660822 457.450287,33.070751 
	C443.409027,47.067116 429.167358,60.871849 415.421295,75.153221 
	C361.820251,130.841537 306.254120,184.571945 252.019196,239.626190 
	C249.155472,242.533173 247.910538,242.579605 244.996368,239.651520 
	C196.921188,191.346985 148.995834,142.886505 100.369293,95.140892 
	C80.900002,76.024315 61.714092,56.619312 42.068657,37.684551 
	C39.378967,35.092159 39.305084,33.632896 41.689621,30.593250 
	C48.219696,22.269129 51.552135,12.657829 50.999977,1.455481 
	C184.020889,1.000000 317.041779,1.000000 450.531342,1.000000 
z"/>
<path fill="#ffe284" opacity="1.000000" stroke="none" 
	d="
M1.000000,51.468658 
	C12.969496,51.667332 23.373350,47.719566 32.553375,40.339630 
	C102.277878,110.058708 172.011124,179.786530 241.856293,249.626282 
	C216.599579,274.886292 190.956207,299.878937 166.050812,325.586487 
	C122.719322,370.313599 78.226105,413.877167 34.446026,458.152649 
	C32.438377,460.183014 31.033949,460.773926 28.562145,458.974609 
	C20.645285,453.211548 11.719683,450.567261 1.455492,450.999939 
	C1.000000,317.979095 1.000000,184.958206 1.000000,51.468658 
z"/>
<path fill="#ffe284" opacity="1.000000" stroke="none" 
	d="
M678.757080,316.757568 
	C632.355957,365.046173 584.608032,411.499084 537.738525,458.824402 
	C535.116028,461.472443 533.725525,462.616791 529.773743,459.644562 
	C513.532532,447.429077 487.890869,447.713806 471.967743,459.807220 
	C468.939148,462.107361 467.917999,461.500061 465.742004,459.318909 
	C421.838684,415.312256 378.110016,371.127197 333.826996,327.505127 
	C307.519562,301.590332 281.232483,275.658905 254.946182,249.456467 
	C283.798645,220.632889 312.998932,192.318054 341.222198,163.060745 
	C380.882477,121.947372 421.967438,82.266037 461.889099,41.425259 
	C465.233063,38.004299 467.387421,38.219055 470.579681,41.034843 
	C485.867157,54.519234 515.276855,54.763988 531.071167,41.324394 
	C532.851990,39.809086 533.800598,40.008110 535.078491,41.553913 
	C535.606995,42.193268 536.244507,42.742718 536.833496,43.331944 
	C596.333069,102.849075 655.716370,162.483368 715.459595,221.754898 
	C724.282776,230.508423 733.224670,239.195892 742.307983,247.705185 
	C744.624268,249.875092 744.636597,251.000381 742.340088,253.274780 
	C721.144287,274.266907 700.090149,295.402100 678.757080,316.757568 
z"/>
<path fill="#ffe284" opacity="1.000000" stroke="none" 
	d="
M349.250122,355.749878 
	C385.568787,392.052185 421.591583,428.150757 457.784851,464.077545 
	C461.026581,467.295441 462.269745,469.348969 459.023193,473.458984 
	C447.189392,488.439941 448.141876,516.851013 460.724365,531.121643 
	C463.160767,533.884888 461.343231,535.168091 459.683258,536.826416 
	C442.235535,554.256775 424.481537,571.393066 407.401398,589.176575 
	C357.441162,641.194214 305.554047,691.289062 254.888885,742.601196 
	C254.538452,742.955994 254.162094,743.285217 252.744400,744.613037 
	C251.774567,743.193359 250.981674,741.540894 249.759995,740.316223 
	C217.274475,707.753113 185.185944,674.777161 152.104095,642.830078 
	C115.696587,607.671509 80.517868,571.295654 44.297253,535.963867 
	C41.341488,533.080566 41.212757,531.243835 43.436867,527.978821 
	C54.869907,511.195190 53.837872,486.512329 41.121773,470.695984 
	C38.946995,467.991028 39.002945,466.310638 41.573372,463.795013 
	C54.671883,450.975861 67.780266,438.153717 80.485481,424.948029 
	C134.419449,368.889496 190.357269,314.826843 244.947281,259.423920 
	C247.984726,256.341217 249.591446,255.882462 252.936249,259.258331 
	C284.838531,291.456757 316.949249,323.448669 349.250122,355.749878 
z"/>
<path fill="#ffe284" opacity="1.000000" stroke="none" 
	d="
M678.250000,670.750000 
	C632.050110,624.554871 586.100220,578.609802 540.156738,532.671143 
	C554.352173,516.670654 554.884338,488.872559 542.280884,472.048706 
	C540.301758,469.406891 540.796082,468.630371 542.659973,466.777435 
	C560.384094,449.158051 578.315063,431.734467 595.644287,413.732574 
	C646.116760,361.301025 698.429565,310.705872 749.562378,258.935089 
	C750.146545,258.343689 750.767883,257.789093 751.919556,256.698822 
	C753.667542,258.688416 755.300354,260.769958 757.156982,262.627838 
	C816.281616,321.794861 875.347656,381.020935 934.661255,439.998016 
	C943.117065,448.405762 951.868042,456.548523 960.453125,464.845490 
	C962.728821,467.044769 962.812317,468.475616 960.760986,470.809937 
	C948.287109,485.004730 947.316772,512.812195 958.601746,528.125000 
	C960.680359,530.945557 960.927246,532.782837 957.971741,535.724426 
	C900.458130,592.966431 842.960266,650.226501 785.872253,707.891785 
	C775.251648,718.619873 764.558472,729.318665 754.258850,740.371826 
	C751.651672,743.169678 750.310486,742.966064 747.706177,740.336365 
	C724.728210,717.134338 701.590454,694.090576 678.250000,670.750000 
z"/>
<path fill="#ffe284" opacity="1.000000" stroke="none" 
	d="
M733.250061,737.749939 
	C737.283691,741.754028 741.067261,745.508179 744.684082,749.096802 
	C673.799377,819.985046 603.028259,890.759827 532.303467,961.488159 
	C524.169312,954.991821 514.807007,951.227417 503.890594,950.910156 
	C492.767303,950.586914 482.398315,952.393860 473.194733,958.975220 
	C470.380981,960.987244 469.124420,958.601440 467.599243,957.077576 
	C438.368561,927.869080 409.535339,898.250061 379.835175,869.527405 
	C340.707916,831.687866 302.711182,792.725098 263.977264,754.498596 
	C262.673981,753.212402 261.243713,752.054810 259.806091,750.778198 
	C330.110199,680.573853 398.953979,609.547729 469.440552,540.307739 
	C477.835022,547.010742 487.200348,550.736145 498.116333,551.095947 
	C510.523376,551.504944 521.841064,549.042236 531.525757,540.943176 
	C533.229919,539.518005 534.453552,539.853333 535.785706,541.268616 
	C536.584290,542.117004 537.425537,542.925354 538.249756,543.749512 
	C587.732910,593.232056 636.963318,642.971497 686.850403,692.043396 
	C702.241272,707.182800 717.443726,722.524414 733.250061,737.749939 
z"/>
</svg>