<svg xmlns="http://www.w3.org/2000/svg" viewBox="0 0 318.9854 95.78411"><defs><style>.cls-1{fill:"current";}</style></defs><title>uamlogo</title><g id="cojunto"><path class="cls-1" d="M133.7598,69.1191h17.291l-23.0547-51.873h-17.291l-2.8828,6.4844-1.4561-3.2774a4.9277,4.9277,0,0,0-4.3037-3.207H73.2403a4.92071,4.92071,0,0,0-4.3028,3.1982l-1.4609,3.2862-2.8818-6.4844H47.3037L24.2481,69.1191h17.291L55.9493,36.6983l2.8818,6.4843L47.3037,69.1191H64.5948l2.8818-6.4843,1.4609,3.2861a4.92215,4.92215,0,0,0,4.3028,3.1982h28.8183a4.92613,4.92613,0,0,0,4.3086-3.2099l1.4561-3.2744,2.8818,6.4843h17.291L116.4688,43.1826l2.8818-6.4843ZM82.8399,28.06738v.001a5.26644,5.26644,0,0,1,9.6123-.01368v-.0029l6.7256,15.1308L92.459,58.2988v-.0029a5.26505,5.26505,0,0,1-9.6123.0137v.0029L76.1231,43.1846ZM104.542,65.0928a3.0022,3.0022,0,0,1-2.4834,2.0263H73.2403a2.99789,2.99789,0,0,1-2.4785-2.0175L50.3809,19.2461H63.295L81.0186,59.124l.0283-.0058-.0244.0117a7.26561,7.26561,0,0,0,13.2627-.01952h.001l5.9853-13.46588,6.457,14.5284h0Zm10.8321-24.3731v.001L108.917,26.19238h0l3.0869-6.94628H124.918Z" transform="translate(-17.291 -16.94338)"/><path class="cls-1" d="M22.1192,76.9248a1.10738,1.10738,0,0,0-1.0801-.5683,1.081,1.081,0,0,0-.7129.2324,1.53174,1.53174,0,0,0-.4404.7529,6.44564,6.44564,0,0,0-.2246,1.3613q-.0645.8409-.0635,2.0577a20.01208,20.01208,0,0,0,.0879,2.09758,4.64778,4.64778,0,0,0,.2715,1.24222,1.133,1.133,0,0,0,.4648.59178,1.326,1.326,0,0,0,.6484.15232,1.53348,1.53348,0,0,0,.5684-.1035.96319.96319,0,0,0,.457-.417,2.69286,2.69286,0,0,0,.3047-.8799,8.08706,8.08706,0,0,0,.1123-1.498h2.3057a10.36343,10.36343,0,0,1-.1436,1.7617,3.98817,3.98817,0,0,1-.5371,1.457,2.66818,2.66818,0,0,1-1.1045.9776,4.19369,4.19369,0,0,1-1.8505.3525,4.33861,4.33861,0,0,1-2.0655-.417,2.80739,2.80739,0,0,1-1.1777-1.2011,5.28061,5.28061,0,0,1-.5283-1.8741,23.98817,23.98817,0,0,1,0-4.7968,5.30691,5.30691,0,0,1,.5283-1.8819,2.96455,2.96455,0,0,1,1.1777-1.2246,4.14548,4.14548,0,0,1,2.0655-.4414,3.981,3.981,0,0,1,1.9462.4014,2.727,2.727,0,0,1,1.0655,1.0166,3.55184,3.55184,0,0,1,.4404,1.3291,10.96546,10.96546,0,0,1,.0879,1.3379H22.416A4.13974,4.13974,0,0,0,22.1192,76.9248Z" transform="translate(-17.291 -16.94338)"/><path class="cls-1" d="M26.0518,80.1358a2.91513,2.91513,0,0,1,.2402-1.2569,2.19389,2.19389,0,0,1,.6485-.8164,2.5634,2.5634,0,0,1,.9619-.4492,4.89667,4.89667,0,0,1,1.1767-.1358,5.4739,5.4739,0,0,1,1.6016.1924,2.188,2.188,0,0,1,.9443.544,1.82875,1.82875,0,0,1,.4571.8408,4.46916,4.46916,0,0,1,.1201,1.0654v4.5332a6.15756,6.15756,0,0,0,.0556.9453,3.25367,3.25367,0,0,0,.2168.71978H30.3604a1.7384,1.7384,0,0,1-.168-.44048c-.0381-.1543-.0722-.3066-.1045-.456h-.0322a1.874,1.874,0,0,1-.8887.8721,3.58279,3.58279,0,0,1-1.3056.2011,2.16359,2.16359,0,0,1-.9766-.2011,1.64026,1.64026,0,0,1-.6406-.5518,2.49242,2.49242,0,0,1-.3526-.793,3.50445,3.50445,0,0,1-.1123-.873,3.76535,3.76535,0,0,1,.1289-1.04882,2.02695,2.02695,0,0,1,.3916-.753,2.14733,2.14733,0,0,1,.6729-.52048,5.30742,5.30742,0,0,1,.9844-.3681l1.25-.336a1.34559,1.34559,0,0,0,.6894-.3525.99176.99176,0,0,0,.1914-.6573,1.18561,1.18561,0,0,0-.2324-.7763.979.979,0,0,0-.793-.28032.94634.94634,0,0,0-.7675.30372,1.22334,1.22334,0,0,0-.2569.8174v.2402H26.0518ZM29.6075,82.29a3.11875,3.11875,0,0,1-.4649.15338,1.695,1.695,0,0,0-.9609.47952,1.35548,1.35548,0,0,0-.2881.913,1.73844,1.73844,0,0,0,.1924.8487.672.672,0,0,0,.6406.3525,1.59582,1.59582,0,0,0,.4648-.0722,1.2847,1.2847,0,0,0,.4395-.23152,1.23565,1.23565,0,0,0,.3291-.417,1.34982,1.34982,0,0,0,.1279-.60838V82.0108A1.95173,1.95173,0,0,1,29.6075,82.29Z" transform="translate(-17.291 -16.94338)"/><path class="cls-1" d="M35.3897,83.7881a1.33556,1.33556,0,0,0,.2959.90428,1.06389,1.06389,0,0,0,.8564.34472,1.22825,1.22825,0,0,0,.8174-.2558.94828.94828,0,0,0,.3047-.7696.8071.8071,0,0,0-.2412-.6318,1.8708,1.8708,0,0,0-.5596-.3447l-1.5547-.5606a2.95219,2.95219,0,0,1-1.3769-.9043,2.33683,2.33683,0,0,1-.4639-1.498,2.82163,2.82163,0,0,1,.1758-1.001,2.10073,2.10073,0,0,1,.5596-.8242,2.80443,2.80443,0,0,1,.9863-.5615,4.44494,4.44494,0,0,1,1.4482-.2081,3.27831,3.27831,0,0,1,2.2266.6407,2.29568,2.29568,0,0,1,.7217,1.8095v.3526H37.5996a1.75329,1.75329,0,0,0-.2168-.9844.8563.8563,0,0,0-.7597-.31252,1.191,1.191,0,0,0-.7295.23152.81461.81461,0,0,0-.3125.6972.91291.91291,0,0,0,.2002.5762,1.538,1.538,0,0,0,.7607.4326l1.3301.4482a3.0129,3.0129,0,0,1,1.4727.9209,2.493,2.493,0,0,1,.4326,1.5459,2.75312,2.75312,0,0,1-.2403,1.1934,2.333,2.333,0,0,1-.664.8408,2.59316,2.59316,0,0,1-1.0098.4805,5.40187,5.40187,0,0,1-1.289.1445,5.68943,5.68943,0,0,1-1.545-.17672,2.24774,2.24774,0,0,1-.9775-.52838,1.91288,1.91288,0,0,1-.5049-.8564,4.12882,4.12882,0,0,1-.1435-1.1299V83.5h1.9863Z" transform="translate(-17.291 -16.94338)"/><path class="cls-1" d="M40.8672,80.1358a2.91359,2.91359,0,0,1,.2403-1.2569,2.19267,2.19267,0,0,1,.6484-.8164,2.56027,2.56027,0,0,1,.9609-.4492,4.90408,4.90408,0,0,1,1.1768-.1358,5.46505,5.46505,0,0,1,1.6016.1924,2.19256,2.19256,0,0,1,.9453.544,1.836,1.836,0,0,1,.456.8408,4.46268,4.46268,0,0,1,.1211,1.0654v4.5332a6.02942,6.02942,0,0,0,.0557.9453,3.29635,3.29635,0,0,0,.2158.71978H45.1748a1.81676,1.81676,0,0,1-.1679-.44048q-.05715-.23145-.1035-.456h-.0323a1.87809,1.87809,0,0,1-.8886.8721,3.58337,3.58337,0,0,1-1.3057.2011,2.1673,2.1673,0,0,1-.9775-.2011,1.64833,1.64833,0,0,1-.6407-.5518,2.4707,2.4707,0,0,1-.3515-.793,3.50445,3.50445,0,0,1-.1123-.873,3.768,3.768,0,0,1,.1279-1.04882,2.01259,2.01259,0,0,1,.3926-.753,2.1425,2.1425,0,0,1,.6718-.52048,5.31926,5.31926,0,0,1,.9854-.3681l1.249-.336a1.34171,1.34171,0,0,0,.6895-.3525.9869.9869,0,0,0,.1924-.6573,1.18563,1.18563,0,0,0-.2325-.7763.98019.98019,0,0,0-.7929-.28032.94871.94871,0,0,0-.7686.30372,1.2233,1.2233,0,0,0-.2568.8174v.2402H40.8672ZM44.4219,82.29a3.10984,3.10984,0,0,1-.4639.15338,1.695,1.695,0,0,0-.9609.47952,1.35548,1.35548,0,0,0-.2881.913,1.73844,1.73844,0,0,0,.1924.8487.66948.66948,0,0,0,.6396.3525,1.59142,1.59142,0,0,0,.4649-.0722,1.29881,1.29881,0,0,0,.4404-.23152,1.22114,1.22114,0,0,0,.3281-.417,1.33662,1.33662,0,0,0,.129-.60838V82.0108A1.97665,1.97665,0,0,1,44.4219,82.29Z" transform="translate(-17.291 -16.94338)"/><path class="cls-1" d="M52.4141,80.1358a2.91513,2.91513,0,0,1,.2402-1.2569,2.20386,2.20386,0,0,1,.6485-.8164,2.57339,2.57339,0,0,1,.9609-.4492,4.911,4.911,0,0,1,1.1777-.1358,5.46924,5.46924,0,0,1,1.6016.1924,2.192,2.192,0,0,1,.9453.544,1.82705,1.82705,0,0,1,.4561.8408,4.46916,4.46916,0,0,1,.1201,1.0654v4.5332a6.14241,6.14241,0,0,0,.0557.9453,3.35231,3.35231,0,0,0,.2167.71978H56.7227a1.77683,1.77683,0,0,1-.168-.44048c-.0381-.1543-.0722-.3066-.1035-.456H56.418a1.87017,1.87017,0,0,1-.8887.8721,3.57909,3.57909,0,0,1-1.3056.2011,2.16359,2.16359,0,0,1-.9766-.2011,1.64731,1.64731,0,0,1-.6406-.5518,2.49242,2.49242,0,0,1-.3526-.793,3.54992,3.54992,0,0,1-.1113-.873,3.80447,3.80447,0,0,1,.127-1.04882,2.02856,2.02856,0,0,1,.3935-.753,2.12468,2.12468,0,0,1,.6729-.52048,5.25508,5.25508,0,0,1,.9843-.3681l1.2491-.336a1.33751,1.33751,0,0,0,.6884-.3525.981.981,0,0,0,.1934-.6573,1.18025,1.18025,0,0,0-.2334-.7763.97811.97811,0,0,0-.792-.28032.952.952,0,0,0-.7695.30372,1.22828,1.22828,0,0,0-.2559.8174v.2402H52.4141ZM55.9698,82.29a3.14785,3.14785,0,0,1-.4639.15338,1.68834,1.68834,0,0,0-.9609.47952,1.35067,1.35067,0,0,0-.2891.913,1.74851,1.74851,0,0,0,.1924.8487.671.671,0,0,0,.6406.3525,1.59582,1.59582,0,0,0,.4648-.0722,1.29834,1.29834,0,0,0,.4405-.23152,1.24563,1.24563,0,0,0,.3281-.417,1.33792,1.33792,0,0,0,.1289-.60838V82.0108A1.97607,1.97607,0,0,1,55.9698,82.29Z" transform="translate(-17.291 -16.94338)"/><path class="cls-1" d="M62.3438,74.8828v3.6201h.0332a2.50142,2.50142,0,0,1,.792-.76952,2.09651,2.09651,0,0,1,1.0654-.25588,2.16945,2.16945,0,0,1,2.002,1.0655,7.03712,7.03712,0,0,1,.6406,3.4678,6.8888,6.8888,0,0,1-.6406,3.4433,2.1829,2.1829,0,0,1-2.002,1.041,2.39958,2.39958,0,0,1-1.1289-.2402,2.20828,2.20828,0,0,1-.8252-.8496h-.0322v.91308H60.1338V74.8828Zm.2168,9.249a.91273.91273,0,0,0,.9531.7129.90179.90179,0,0,0,.9365-.7129,10.49377,10.49377,0,0,0,0-4.2441.90271.90271,0,0,0-.9365-.7129.91366.91366,0,0,0-.9531.7129,10.49377,10.49377,0,0,0,0,4.2441Z" transform="translate(-17.291 -16.94338)"/><path class="cls-1" d="M70.4327,74.7549v1.8896h-2.21V74.7549Zm0,2.9473v8.61618h-2.21V77.7022Z" transform="translate(-17.291 -16.94338)"/><path class="cls-1" d="M73.876,83.0352a4.75888,4.75888,0,0,0,.0567.7451,2.4552,2.4552,0,0,0,.1835.6406,1.22154,1.22154,0,0,0,.336.4482.79105.79105,0,0,0,.5127.168.89745.89745,0,0,0,.8174-.4004,2.95848,2.95848,0,0,0,.3525-1.2168h1.9854a3.45315,3.45315,0,0,1-.7999,2.2901,3.054,3.054,0,0,1-2.3232.7851,3.68055,3.68055,0,0,1-1.874-.4004,2.49011,2.49011,0,0,1-.9932-1.0576,4.15343,4.15343,0,0,1-.3916-1.4736q-.0732-.816-.0723-1.6338a11.21437,11.21437,0,0,1,.1202-1.665,4.03643,4.03643,0,0,1,.4795-1.4258,2.62611,2.62611,0,0,1,1.0341-.9932,3.74224,3.74224,0,0,1,1.794-.3682,3.475,3.475,0,0,1,1.5771.3125,2.38459,2.38459,0,0,1,.9698.8809,3.68548,3.68548,0,0,1,.4795,1.377,11.63543,11.63543,0,0,1,.1289,1.8017v.4971H73.876Zm2.1943-2.875a2.24676,2.24676,0,0,0-.1679-.6407.90121.90121,0,0,0-.336-.4004,1.02356,1.02356,0,0,0-.5527-.13572.94233.94233,0,0,0-.5527.15142,1.09493,1.09493,0,0,0-.3448.4013,1.98162,1.98162,0,0,0-.1835.5528,3.279,3.279,0,0,0-.0567.6084v.3359h2.2588C76.1231,80.7022,76.1026,80.4111,76.0703,80.1602Z" transform="translate(-17.291 -16.94338)"/><path class="cls-1" d="M81.5157,77.7022v1.1523h.0322a3.13229,3.13229,0,0,1,.8164-1.001,1.83976,1.83976,0,0,1,1.1699-.376c.0635,0,.1309.003.2002.00788.0693.00582.1358.01362.2002.02442V79.624c-.1182-.0107-.2324-.0185-.3447-.0244-.1123-.0049-.2266-.0078-.3438-.0078a2.13712,2.13712,0,0,0-.5771.0801,1.537,1.537,0,0,0-.5283.2646,1.30775,1.30775,0,0,0-.3848.4805,1.66117,1.66117,0,0,0-.1445.7285v5.17288h-2.21V77.7022Z" transform="translate(-17.291 -16.94338)"/><path class="cls-1" d="M87.4258,75.23538V77.7022h1.2813V79.207H87.4258v4.6612a1.30631,1.30631,0,0,0,.1524.7285.73659.73659,0,0,0,.6328.2168c.0849,0,.1699-.0029.2558-.0088q.129-.00735.2403-.0234v1.53708c-.2461,0-.4825.00882-.7129.02442-.2295.01558-.4717.0244-.7285.0244a5.12717,5.12717,0,0,1-1.0489-.0889,1.06831,1.06831,0,0,1-.625-.3515,1.53334,1.53334,0,0,1-.2959-.6973,6.11183,6.11183,0,0,1-.08-1.0889V79.207H84.0948V77.7022h1.1211V75.23538Z" transform="translate(-17.291 -16.94338)"/><path class="cls-1" d="M89.459,80.1358a2.91448,2.91448,0,0,1,.2412-1.2569,2.19389,2.19389,0,0,1,.6485-.8164,2.56608,2.56608,0,0,1,.9609-.4492,4.90565,4.90565,0,0,1,1.1777-.1358,5.47343,5.47343,0,0,1,1.6016.1924,2.188,2.188,0,0,1,.9443.544,1.82875,1.82875,0,0,1,.4571.8408,4.46916,4.46916,0,0,1,.1201,1.0654v4.5332a6.15756,6.15756,0,0,0,.0556.9453,3.25367,3.25367,0,0,0,.2168.71978H93.7686a1.81948,1.81948,0,0,1-.169-.44048c-.0371-.1543-.0722-.3066-.1035-.456h-.0322a1.87782,1.87782,0,0,1-.8887.8721,3.58279,3.58279,0,0,1-1.3056.2011,2.1577,2.1577,0,0,1-.9766-.2011,1.64026,1.64026,0,0,1-.6406-.5518,2.49408,2.49408,0,0,1-.3535-.793,3.54532,3.54532,0,0,1-.1114-.873,3.80175,3.80175,0,0,1,.128-1.04882,2.02694,2.02694,0,0,1,.3925-.753,2.14733,2.14733,0,0,1,.6729-.52048,5.30742,5.30742,0,0,1,.9844-.3681l1.25-.336a1.34176,1.34176,0,0,0,.6884-.3525.98636.98636,0,0,0,.1924-.6573,1.18,1.18,0,0,0-.2324-.7763.98042.98042,0,0,0-.793-.28032.94985.94985,0,0,0-.7685.30372,1.22828,1.22828,0,0,0-.2559.8174v.2402H89.459ZM93.0157,82.29a3.15676,3.15676,0,0,1-.4649.15338,1.69168,1.69168,0,0,0-.9609.47952,1.35548,1.35548,0,0,0-.2881.913,1.73844,1.73844,0,0,0,.1924.8487.671.671,0,0,0,.6406.3525,1.59052,1.59052,0,0,0,.4639-.0722,1.2806,1.2806,0,0,0,.4404-.23152,1.22114,1.22114,0,0,0,.3281-.417,1.33662,1.33662,0,0,0,.1289-.60838V82.0108A1.97018,1.97018,0,0,1,93.0157,82.29Z" transform="translate(-17.291 -16.94338)"/><path class="cls-1" d="M101.0078,80.1358a2.91359,2.91359,0,0,1,.2403-1.2569,2.19366,2.19366,0,0,1,.6484-.8164,2.56,2.56,0,0,1,.961-.4492,4.90505,4.90505,0,0,1,1.1777-.1358,5.47436,5.47436,0,0,1,1.6016.1924,2.18858,2.18858,0,0,1,.9443.544,1.81782,1.81782,0,0,1,.456.8408,4.46268,4.46268,0,0,1,.1211,1.0654v4.5332a6.02942,6.02942,0,0,0,.0557.9453,3.29635,3.29635,0,0,0,.2158.71978h-2.1133a1.81923,1.81923,0,0,1-.1689-.44048q-.05565-.23145-.1035-.456h-.0322a1.87868,1.87868,0,0,1-.8887.8721,3.583,3.583,0,0,1-1.3057.2011,2.17055,2.17055,0,0,1-.9775-.2011,1.63825,1.63825,0,0,1-.6397-.5518,2.47253,2.47253,0,0,1-.3525-.793,3.50445,3.50445,0,0,1-.1123-.873,3.768,3.768,0,0,1,.1279-1.04882,2.04183,2.04183,0,0,1,.3926-.753,2.13664,2.13664,0,0,1,.6728-.52048,5.30742,5.30742,0,0,1,.9844-.3681l1.249-.336a1.34554,1.34554,0,0,0,.6895-.3525.9869.9869,0,0,0,.1924-.6573,1.18059,1.18059,0,0,0-.2324-.7763.98055.98055,0,0,0-.793-.28032.94885.94885,0,0,0-.7686.30372,1.22825,1.22825,0,0,0-.2558.8174v.2402h-1.9864Zm3.5557,2.1542a3.15972,3.15972,0,0,1-.4648.15338,1.695,1.695,0,0,0-.961.47952,1.35548,1.35548,0,0,0-.2881.913,1.7496,1.7496,0,0,0,.1914.8487.67267.67267,0,0,0,.6417.3525,1.58432,1.58432,0,0,0,.4638-.0722,1.297,1.297,0,0,0,.4404-.23152,1.23565,1.23565,0,0,0,.3291-.417,1.34982,1.34982,0,0,0,.128-.60838V82.0108A1.97077,1.97077,0,0,1,104.5635,82.29Z" transform="translate(-17.291 -16.94338)"/><path class="cls-1" d="M111.0176,74.8828V86.31838h-2.2099V74.8828Z" transform="translate(-17.291 -16.94338)"/><path class="cls-1" d="M119.1055,75.23538V77.7022h1.2813V79.207h-1.2813v4.6612a1.3073,1.3073,0,0,0,.1523.7285.73682.73682,0,0,0,.6329.2168c.0859,0,.1709-.0029.2558-.0088q.129-.00735.2403-.0234v1.53708c-.2461,0-.4834.00882-.7129.02442s-.4717.0244-.7286.0244a5.12,5.12,0,0,1-1.0488-.0889,1.068,1.068,0,0,1-.625-.3515,1.51317,1.51317,0,0,1-.2959-.6973,6.11067,6.11067,0,0,1-.0801-1.0889V79.207h-1.1211V77.7022h1.1211V75.23538Z" transform="translate(-17.291 -16.94338)"/><path class="cls-1" d="M123.4463,74.7549v1.8896h-2.2099V74.7549Zm0,2.9473v8.61618h-2.2099V77.7022Z" transform="translate(-17.291 -16.94338)"/><path class="cls-1" d="M126.8897,83.0352a4.8841,4.8841,0,0,0,.0556.7451,2.42085,2.42085,0,0,0,.1846.6406,1.21073,1.21073,0,0,0,.336.4482.78718.78718,0,0,0,.5126.168.8958.8958,0,0,0,.8165-.4004,2.957,2.957,0,0,0,.3535-1.2168h1.9853a3.4529,3.4529,0,0,1-.8008,2.2901,3.05163,3.05163,0,0,1-2.3222.7851,3.6755,3.6755,0,0,1-1.874-.4004,2.49011,2.49011,0,0,1-.9932-1.0576,4.154,4.154,0,0,1-.3926-1.4736q-.0717-.816-.0713-1.6338a11.21633,11.21633,0,0,1,.1192-1.665,4.01941,4.01941,0,0,1,.4804-1.4258,2.61772,2.61772,0,0,1,1.0332-.9932,3.74768,3.74768,0,0,1,1.794-.3682,3.47951,3.47951,0,0,1,1.5781.3125,2.38251,2.38251,0,0,1,.9688.8809,3.68412,3.68412,0,0,1,.4804,1.377,11.62934,11.62934,0,0,1,.128,1.8017v.4971h-4.3721Zm2.1943-2.875a2.27666,2.27666,0,0,0-.168-.6407.896.896,0,0,0-.3369-.4004,1.0212,1.0212,0,0,0-.5527-.13572.94665.94665,0,0,0-.5527.15142,1.09246,1.09246,0,0,0-.3438.4013,1.954,1.954,0,0,0-.1846.5528,3.36527,3.36527,0,0,0-.0556.6084v.3359h2.2588Q129.13095,80.5367,129.084,80.1602Z" transform="translate(-17.291 -16.94338)"/><path class="cls-1" d="M134.5293,77.7022v.8808h.0323a2.53412,2.53412,0,0,1,.9365-.84962,2.79557,2.79557,0,0,1,1.2412-.25588,2.24254,2.24254,0,0,1,1.2891.3526,1.713,1.713,0,0,1,.6972,1.0244h.0322a1.96024,1.96024,0,0,1,.8243-1.0332,2.57316,2.57316,0,0,1,1.3545-.3438,1.93539,1.93539,0,0,1,1.625.6651,3.049,3.049,0,0,1,.5205,1.9131v6.26268h-2.211V80.2969a1.45991,1.45991,0,0,0-.1992-.833.7525.7525,0,0,0-.665-.2891,1.06869,1.06869,0,0,0-.8409.35258,1.66566,1.66566,0,0,0-.3125,1.121v5.67h-2.2099V80.2969a1.45949,1.45949,0,0,0-.2002-.833.75183.75183,0,0,0-.6641-.2891,1.06917,1.06917,0,0,0-.8418.35258,1.66566,1.66566,0,0,0-.3125,1.121v5.67h-2.2099V77.7022Z" transform="translate(-17.291 -16.94338)"/><path class="cls-1" d="M146.67,77.7022v.913h.0312a2.4383,2.4383,0,0,1,.8252-.874,2.2283,2.2283,0,0,1,1.1299-.2637,2.17024,2.17024,0,0,1,2.0019,1.0655,7.0358,7.0358,0,0,1,.6407,3.4678,6.88751,6.88751,0,0,1-.6407,3.4433,2.1837,2.1837,0,0,1-2.0019,1.041,2.04378,2.04378,0,0,1-1.8584-.9775h-.0322v3.5723h-2.21V77.7022Zm.3125,6.4296a.9825.9825,0,0,0,1.8896,0,10.54139,10.54139,0,0,0,0-4.2441.9825.9825,0,0,0-1.8896,0,10.49377,10.49377,0,0,0,0,4.2441Z" transform="translate(-17.291 -16.94338)"/><path class="cls-1" d="M152.4522,80.0557a3.7647,3.7647,0,0,1,.5762-1.417,2.56759,2.56759,0,0,1,1.0488-.86532,3.833,3.833,0,0,1,1.5937-.29588,4.07154,4.07154,0,0,1,1.6494.2637,2.31716,2.31716,0,0,1,1.042.8574,3.82534,3.82534,0,0,1,.544,1.42578,10.77794,10.77794,0,0,1,.1601,1.98642,9.70462,9.70462,0,0,1-.1757,1.9531,3.7794,3.7794,0,0,1-.5762,1.4179,2.39344,2.39344,0,0,1-1.0498.8409,4.1225,4.1225,0,0,1-1.5938.2724,4.2834,4.2834,0,0,1-1.6494-.248,2.235,2.235,0,0,1-1.041-.833,3.77574,3.77574,0,0,1-.5449-1.4258,10.8825,10.8825,0,0,1-.1602-1.9775A9.6387,9.6387,0,0,1,152.4522,80.0557Zm2.0664,3.1718a4.16388,4.16388,0,0,0,.1514.961,1.3694,1.3694,0,0,0,.3603.625.90175.90175,0,0,0,.6406.2236.937.937,0,0,0,.9297-.7051,10.665,10.665,0,0,0,0-4.6445.93717.93717,0,0,0-.9297-.70412.90176.90176,0,0,0-.6406.22362,1.37984,1.37984,0,0,0-.3603.625,4.16477,4.16477,0,0,0-.1514.961c-.0225.374-.0322.7803-.0322,1.2178S154.4961,82.8535,154.5186,83.2275Z" transform="translate(-17.291 -16.94338)"/><path class="cls-1" d="M174.21,29.6406a7.92585,7.92585,0,0,0,.0869,1.2285,2.75163,2.75163,0,0,0,.3223.9668,1.70926,1.70926,0,0,0,.6445.6446,2.3854,2.3854,0,0,0,2.0703,0,1.74987,1.74987,0,0,0,.6328-.6446,2.76993,2.76993,0,0,0,.3223-.9668,8.05139,8.05139,0,0,0,.0869-1.2285V17.291h3.5713V29.6406a7.16058,7.16058,0,0,1-.4707,2.791,4.45349,4.45349,0,0,1-1.2656,1.7481,4.30143,4.30143,0,0,1-1.8106.8682,9.823,9.823,0,0,1-2.1074.2226,11.02484,11.02484,0,0,1-2.1084-.1982,4.27907,4.27907,0,0,1-1.8105-.8057,4.13728,4.13728,0,0,1-1.2647-1.7236,7.54328,7.54328,0,0,1-.4707-2.9024V17.291H174.21Z" transform="translate(-17.291 -16.94338)"/><path class="cls-1" d="M192.6358,29.418h.0498V17.291h3.2734V34.9981h-4.0674l-4.3642-12.4004h-.0498V34.9981h-3.2735V17.291h4.1162Z" transform="translate(-17.291 -16.94338)"/><path class="cls-1" d="M198.61229,17.291h3.5713V34.9981h-3.5713Z" transform="translate(-17.291 -16.94338)"/><path class="cls-1" d="M209.99609,30.3848h.0742l2.629-13.0938h3.6953l-4.0674,17.7071h-4.5889l-4.0664-17.7071h3.8184Z" transform="translate(-17.291 -16.94338)"/><path class="cls-1" d="M227.60349,20.2168h-6.3242v4.167h5.9522v2.9258h-5.9522v4.7617h6.5723v2.9268H217.708V17.291h9.8955Z" transform="translate(-17.291 -16.94338)"/><path class="cls-1" d="M236.2334,17.291a4.97152,4.97152,0,0,1,3.47169,1.128,4.41747,4.41747,0,0,1,1.2402,3.4345,5.33742,5.33742,0,0,1-.7187,2.9141,3.33115,3.33115,0,0,1-2.2324,1.4512v.0498a3.22608,3.22608,0,0,1,1.959.8681,3.67454,3.67454,0,0,1,.7695,2.1573q.0498.4965.0742,1.0791c.0156.3886.0332.8222.0498,1.3017q.0483,1.4136.1485,2.1572a1.38807,1.38807,0,0,0,.6445,1.0176v.1485h-3.8682a1.9107,1.9107,0,0,1-.3476-.8555,9.568,9.568,0,0,1-.0996-1.0049l-.0987-3.3975a2.7985,2.7985,0,0,0-.5205-1.6367,1.91158,1.91158,0,0,0-1.5879-.5957H233.208v7.4903h-3.5712V17.291Zm-1.53711,7.7373a2.91864,2.91864,0,0,0,1.9834-.6074,2.60115,2.60115,0,0,0,.6944-2.0459,2.18116,2.18116,0,0,0-2.4795-2.4551H233.208v5.1084Z" transform="translate(-17.291 -16.94338)"/><path class="cls-1" d="M246.30279,29.9883a5.8892,5.8892,0,0,0,.09861,1.1289,1.96533,1.96533,0,0,0,.37209.8555,1.8281,1.8281,0,0,0,.7314.5449,2.90635,2.90635,0,0,0,1.1533.1992,2.28206,2.28206,0,0,0,1.4756-.5332,1.99774,1.99774,0,0,0,.6572-1.6494,2.95534,2.95534,0,0,0-.1611-1.0293,2.03253,2.03253,0,0,0-.5332-.7813,3.80751,3.80751,0,0,0-.9795-.6328,14.4189,14.4189,0,0,0-1.5-.583,12.71885,12.71885,0,0,1-2.0586-.8672,5.56715,5.56715,0,0,1-1.4511-1.1035,3.94491,3.94491,0,0,1-.8555-1.4638,6.13968,6.13968,0,0,1-.2735-1.92192,4.95113,4.95113,0,0,1,1.46391-3.918,5.86726,5.86726,0,0,1,4.01759-1.29,8.71284,8.71284,0,0,1,2.1943.26072,4.61686,4.61686,0,0,1,1.7364.8428,3.94648,3.94648,0,0,1,1.1406,1.4883,5.23125,5.23125,0,0,1,.4092,2.1699v.4961h-3.4219a3.55983,3.55983,0,0,0-.4463-1.9473,1.64552,1.64552,0,0,0-1.4883-.6816,2.49228,2.49228,0,0,0-.9922.1738,1.66422,1.66422,0,0,0-.6328.459,1.582,1.582,0,0,0-.3222.6572,3.37289,3.37289,0,0,0-.086.7686,2.55771,2.55771,0,0,0,.3467,1.3759,3.10629,3.10629,0,0,0,1.4883,1.0293l2.7529,1.1905a8.47329,8.47329,0,0,1,1.6611.9297,4.56454,4.56454,0,0,1,1.0293,1.042,3.48414,3.48414,0,0,1,.5332,1.2275,6.90465,6.90465,0,0,1,.1485,1.4883,4.87369,4.87369,0,0,1-1.624,4.0791,7.14968,7.14968,0,0,1-4.52639,1.2773q-3.02491,0-4.32721-1.3144a5.12989,5.12989,0,0,1-1.3027-3.7696v-.7187h3.5723Z" transform="translate(-17.291 -16.94338)"/><path class="cls-1" d="M256.47069,17.291h3.5703V34.9981h-3.5703Z" transform="translate(-17.291 -16.94338)"/><path class="cls-1" d="M268.72169,17.291a6.38982,6.38982,0,0,1,3.001.60738,4.318,4.318,0,0,1,1.7725,1.73642,7.72226,7.72226,0,0,1,.8564,2.7148,25.70114,25.70114,0,0,1,.2227,3.5469,25.23739,25.23739,0,0,1-.2852,4.0547,7.768,7.768,0,0,1-.9795,2.8398,4.2937,4.2937,0,0,1-1.8603,1.6612,6.963,6.963,0,0,1-2.9512.5459h-5.6289V17.291Zm-.69429,15.0781a3.0708,3.0708,0,0,0,1.51269-.3222,2.2147,2.2147,0,0,0,.9052-1.0664,6.27937,6.27937,0,0,0,.4463-1.959q.11145-1.2159.1114-3.0254,0-1.5132-.0987-2.6543a6.54188,6.54188,0,0,0-.4101-1.8965,2.362,2.362,0,0,0-.917-1.1416,3.01279,3.01279,0,0,0-1.624-.3838h-1.5137V32.3691Z" transform="translate(-17.291 -16.94338)"/><path class="cls-1" d="M284.791,17.291l4.6875,17.7071h-3.7197l-.8183-3.7452h-4.712l-.8183,3.7452h-3.7207L280.377,17.291Zm-.4707,11.0352-1.71089-7.96h-.04981l-1.7109,7.96Z" transform="translate(-17.291 -16.94338)"/><path class="cls-1" d="M296.74519,17.291a6.384,6.384,0,0,1,3.0009.60738,4.32643,4.32643,0,0,1,1.7735,1.73642,7.74063,7.74063,0,0,1,.8554,2.7148,25.68551,25.68551,0,0,1,.2227,3.5469,25.22586,25.22586,0,0,1-.2852,4.0547,7.74963,7.74963,0,0,1-.9795,2.8398,4.29315,4.29315,0,0,1-1.8603,1.6612,6.963,6.963,0,0,1-2.9512.5459h-5.6289V17.291Zm-.6944,15.0781a3.07056,3.07056,0,0,0,1.5127-.3222,2.21481,2.21481,0,0,0,.9053-1.0664,6.25409,6.25409,0,0,0,.4463-1.959q.1113-1.2159.11131-3.0254,0-1.5132-.09861-2.6543a6.57673,6.57673,0,0,0-.4092-1.8965,2.36319,2.36319,0,0,0-.918-1.1416,3.01279,3.01279,0,0,0-1.624-.3838h-1.5137V32.3691Z" transform="translate(-17.291 -16.94338)"/><path class="cls-1" d="M178.7227,42.8906l4.6875,17.7071h-3.7197l-.8184-3.7442h-4.7119l-.8184,3.7442h-3.7207l4.6875-17.7071Zm-.4707,11.0362-1.711-7.961h-.0498l-1.7109,7.961Z" transform="translate(-17.291 -16.94338)"/><path class="cls-1" d="M187.9981,55.2412a8.04958,8.04958,0,0,0,.0869,1.2276,2.74653,2.74653,0,0,0,.3232.9668,1.71242,1.71242,0,0,0,.6446.6455,2.39472,2.39472,0,0,0,2.0703,0,1.75374,1.75374,0,0,0,.6328-.6455,2.80784,2.80784,0,0,0,.3223-.9668,8.04958,8.04958,0,0,0,.0869-1.2276V42.8906h3.5713V55.2412a7.13828,7.13828,0,0,1-.4717,2.7901A4.43515,4.43515,0,0,1,194,59.7793a4.27748,4.27748,0,0,1-1.8105.8682,9.76661,9.76661,0,0,1-2.1074.2236,10.93627,10.93627,0,0,1-2.1084-.1992,4.27868,4.27868,0,0,1-1.8106-.8057,4.13625,4.13625,0,0,1-1.2646-1.7236,7.53945,7.53945,0,0,1-.4707-2.9014V42.8906h3.5703Z" transform="translate(-17.291 -16.94338)"/><path class="cls-1" d="M208.3594,45.81738h-3.86911V60.5977H200.919V45.81738H197.0508V42.8906h11.3086Z" transform="translate(-17.291 -16.94338)"/><path class="cls-1" d="M209.711,48.0371a8.19164,8.19164,0,0,1,.8183-2.914,4.57957,4.57957,0,0,1,1.8223-1.8975,7.83828,7.83828,0,0,1,6.3984,0,4.58187,4.58187,0,0,1,1.8233,1.8975,8.231,8.231,0,0,1,.8183,2.914,37.25068,37.25068,0,0,1,0,7.4278,8.20752,8.20752,0,0,1-.8183,2.9013,4.35152,4.35152,0,0,1-1.8233,1.8594,8.25062,8.25062,0,0,1-6.3984,0,4.34931,4.34931,0,0,1-1.8223-1.8594,8.16808,8.16808,0,0,1-.8183-2.9013,37.054,37.054,0,0,1,0-7.4278Zm3.4717,6.7451a8.47588,8.47588,0,0,0,.3466,2.03418,2.26515,2.26515,0,0,0,.7442,1.14062,2.44974,2.44974,0,0,0,2.5547,0,2.265,2.265,0,0,0,.7441-1.14062,8.46928,8.46928,0,0,0,.3477-2.03418q.0849-1.25235.0859-3.0381,0-1.7856-.0859-3.0253a8.6144,8.6144,0,0,0-.3477-2.0332,2.26355,2.26355,0,0,0-.7441-1.1534,2.44441,2.44441,0,0,0-2.5547,0,2.26372,2.26372,0,0,0-.7442,1.1534,8.62082,8.62082,0,0,0-.3466,2.0332q-.08655,1.24065-.087,3.0253Q213.09569,53.52985,213.18269,54.7822Zm5.5175-16.5039-2.4297,3.5713h-2.331l1.33891-3.5713Z" transform="translate(-17.291 -16.94338)"/><path class="cls-1" d="M232.11719,55.0176h.0498V42.8906h3.2735V60.5977h-4.0674l-4.3643-12.3994h-.0498V60.5977h-3.2734V42.8906h4.1172Z" transform="translate(-17.291 -16.94338)"/><path class="cls-1" d="M237.7344,48.0371a8.21023,8.21023,0,0,1,.81839-2.914,4.58549,4.58549,0,0,1,1.8222-1.8975,7.83852,7.83852,0,0,1,6.3985,0,4.58225,4.58225,0,0,1,1.8232,1.8975,8.2123,8.2123,0,0,1,.8184,2.914,37.27066,37.27066,0,0,1,0,7.4278,8.18879,8.18879,0,0,1-.8184,2.9013,4.35185,4.35185,0,0,1-1.8232,1.8594,8.25087,8.25087,0,0,1-6.3985,0,4.35466,4.35466,0,0,1-1.8222-1.8594,8.18671,8.18671,0,0,1-.81839-2.9013,37.06984,37.06984,0,0,1,0-7.4278Zm3.47169,6.7451a8.42092,8.42092,0,0,0,.3476,2.03418,2.25768,2.25768,0,0,0,.7432,1.14062,2.44974,2.44974,0,0,0,2.5547,0,2.2644,2.2644,0,0,0,.7441-1.14062,8.46525,8.46525,0,0,0,.34771-2.03418q.08639-1.25235.08589-3.0381,0-1.7856-.08589-3.0253a8.61024,8.61024,0,0,0-.34771-2.0332,2.263,2.263,0,0,0-.7441-1.1534,2.44441,2.44441,0,0,0-2.5547,0,2.25639,2.25639,0,0,0-.7432,1.1534,8.56433,8.56433,0,0,0-.3476,2.0332q-.0864,1.24065-.0869,3.0253Q241.11919,53.52985,241.20609,54.7822Z" transform="translate(-17.291 -16.94338)"/><path class="cls-1" d="M257.09089,42.8906l2.5293,12.4991h.0498l2.5546-12.4991h5.2823V60.5977H264.2334V46.4619h-.04981l-3.1494,14.1358h-2.7783l-3.1494-14.1358h-.0498V60.5977h-3.2735V42.8906Z" transform="translate(-17.291 -16.94338)"/><path class="cls-1" d="M277.92189,42.8906l4.68751,17.7071h-3.71971l-.8184-3.7442H273.3594l-.81841,3.7442h-3.7207l4.6875-17.7071Zm-.4707,11.0362-1.7109-7.961h-.0498l-1.711,7.961Z" transform="translate(-17.291 -16.94338)"/><path class="cls-1" d="M176.2432,68.4902l2.5293,12.5h.0498l2.5547-12.5h5.2822V86.1983h-3.2734V72.0625h-.0498l-3.1494,14.1358h-2.7784l-3.1484-14.1358H174.21V86.1983h-3.2744V68.4902Z" transform="translate(-17.291 -16.94338)"/><path class="cls-1" d="M199.1084,71.417h-6.3242v4.167h5.9522v2.9258h-5.9522v4.7617h6.57229v2.9268H189.2129V68.4902h9.8955Z" transform="translate(-17.291 -16.94338)"/><path class="cls-1" d="M211.50779,71.417h-3.8681V86.1983H204.0684V71.417h-3.86911V68.4902h11.3085Z" transform="translate(-17.291 -16.94338)"/><path class="cls-1" d="M219.64259,68.4902a4.974,4.974,0,0,1,3.4717,1.1289,4.41675,4.41675,0,0,1,1.2402,3.4346,5.33976,5.33976,0,0,1-.7187,2.9141,3.33139,3.33139,0,0,1-2.23239,1.4512v.0498a3.22589,3.22589,0,0,1,1.95889.8681,3.67381,3.67381,0,0,1,.7686,2.1572q.0498.49665.0752,1.0792.0234.5829.0498,1.3017.0483,1.41357.1484,2.1572a1.38816,1.38816,0,0,0,.6446,1.0176v.1485h-3.8692a1.92142,1.92142,0,0,1-.3467-.8555,9.56486,9.56486,0,0,1-.09959-1.0049l-.09861-3.39752a2.79172,2.79172,0,0,0-.5215-1.63668,1.90836,1.90836,0,0,0-1.58689-.5957h-1.90921v7.4903h-3.5713V68.4902Zm-1.5371,7.7383a2.91874,2.91874,0,0,0,1.9834-.6074,2.60211,2.60211,0,0,0,.6943-2.0469,2.18112,2.18112,0,0,0-2.4795-2.4551h-1.6865v5.1094Z" transform="translate(-17.291 -16.94338)"/><path class="cls-1" d="M226.64849,73.6367a8.21231,8.21231,0,0,1,.8183-2.914,4.59165,4.59165,0,0,1,1.8223-1.8975,7.84878,7.84878,0,0,1,6.3984,0,4.58785,4.58785,0,0,1,1.8233,1.8975,8.21024,8.21024,0,0,1,.8183,2.914,37.05209,37.05209,0,0,1,0,7.4278,8.18,8.18,0,0,1-.8183,2.9013,4.34857,4.34857,0,0,1-1.8233,1.8604,8.26242,8.26242,0,0,1-6.3984,0,4.35187,4.35187,0,0,1-1.8223-1.8604,8.1821,8.1821,0,0,1-.8183-2.9013,37.25072,37.25072,0,0,1,0-7.4278Zm3.4717,6.7461a8.403,8.403,0,0,0,.3476,2.0332,2.25438,2.25438,0,0,0,.7441,1.1406,2.44223,2.44223,0,0,0,2.5538,0,2.26075,2.26075,0,0,0,.7441-1.1406,8.45167,8.45167,0,0,0,.3477-2.0332q.0864-1.25235.08691-3.0381,0-1.7856-.08691-3.02632a8.61492,8.61492,0,0,0-.3477-2.03318,2.26794,2.26794,0,0,0-.7441-1.1534,2.44861,2.44861,0,0,0-2.5538,0,2.26162,2.26162,0,0,0-.7441,1.1534,8.56433,8.56433,0,0,0-.3476,2.03318q-.08655,1.24068-.087,3.02632Q230.03319,79.13045,230.12019,80.3828Z" transform="translate(-17.291 -16.94338)"/><path class="cls-1" d="M246.87309,68.4902a5.15992,5.15992,0,0,1,2.2939.459,4.18874,4.18874,0,0,1,1.5,1.20318,4.70467,4.70467,0,0,1,.81841,1.69922,7.72551,7.72551,0,0,1,.248,1.9463,6.34064,6.34064,0,0,1-.40911,2.3808,4.31545,4.31545,0,0,1-1.1407,1.6621,4.77567,4.77567,0,0,1-1.7734.9668,7.7761,7.7761,0,0,1-2.3067.3223H244.1944v7.0684h-3.57131V68.4902Zm-1.0918,8.0108a2.35936,2.35936,0,0,0,1.7246-.6445,2.71051,2.71051,0,0,0,.6562-2.0088,3.13382,3.13382,0,0,0-.5703-2.0332,2.34,2.34,0,0,0-1.9091-.6954H244.1944V76.501Z" transform="translate(-17.291 -16.94338)"/><path class="cls-1" d="M253.30859,73.6367a8.2123,8.2123,0,0,1,.8184-2.914,4.59165,4.59165,0,0,1,1.8223-1.8975,7.84878,7.84878,0,0,1,6.3984,0,4.58761,4.58761,0,0,1,1.8232,1.8975,8.21023,8.21023,0,0,1,.8184,2.914,37.2707,37.2707,0,0,1,0,7.4278,8.18,8.18,0,0,1-.8184,2.9013,4.34834,4.34834,0,0,1-1.8232,1.8604,8.26242,8.26242,0,0,1-6.3984,0,4.35187,4.35187,0,0,1-1.8223-1.8604,8.1821,8.1821,0,0,1-.8184-2.9013,37.07185,37.07185,0,0,1,0-7.4278Zm3.4717,6.7461a8.39755,8.39755,0,0,0,.3477,2.0332,2.2533,2.2533,0,0,0,.7431,1.1406,2.44383,2.44383,0,0,0,2.5547,0,2.26086,2.26086,0,0,0,.7442-1.1406,8.45223,8.45223,0,0,0,.3476-2.0332q.0864-1.25235.0859-3.0381,0-1.7856-.0859-3.02632a8.61545,8.61545,0,0,0-.3476-2.03318,2.268,2.268,0,0,0-.7442-1.1534,2.45021,2.45021,0,0,0-2.5547,0,2.26059,2.26059,0,0,0-.7431,1.1534,8.55873,8.55873,0,0,0-.3477,2.03318q-.0864,1.24068-.08689,3.02632Q256.6934,79.13045,256.78029,80.3828Z" transform="translate(-17.291 -16.94338)"/><path class="cls-1" d="M267.28319,68.4902h3.5713V83.2715h6.3242v2.9268h-9.8955Z" transform="translate(-17.291 -16.94338)"/><path class="cls-1" d="M278.93949,68.4902h3.5703V86.1983h-3.5703Z" transform="translate(-17.291 -16.94338)"/><path class="cls-1" d="M295.53029,71.417h-3.8682V86.1983h-3.5722V71.417h-3.8682V68.4902h11.3086Z" transform="translate(-17.291 -16.94338)"/><path class="cls-1" d="M303.56549,68.4902l4.6875,17.7081h-3.7198l-.8183-3.7452H299.002l-.8184,3.7452h-3.7197l4.68751-17.7081Zm-.4707,11.03618-1.712-7.96h-.0488l-1.7119,7.96Z" transform="translate(-17.291 -16.94338)"/><path class="cls-1" d="M317.92479,80.6182h.0498V68.4902h3.2735V86.1983h-4.0674L312.8164,73.7979h-.04981V86.1983h-3.2734V68.4902h4.11621Z" transform="translate(-17.291 -16.94338)"/><path class="cls-1" d="M331.58889,68.4902l4.68751,17.7081h-3.71971l-.8184-3.7452H327.0264l-.81931,3.7452h-3.7198l4.6875-17.7081Zm-.4707,11.03618-1.7119-7.96h-.0488l-1.711,7.96Z" transform="translate(-17.291 -16.94338)"/><polygon class="cls-1" points="148.058 69.375 147.058 69.375 147.058 0.303 148.058 0.303 148.058 69.375 148.058 69.375"/></g><g id="nombre_de_unidad" data-name="nombre de unidad"><path class="cls-1" d="M173.3213,104.9478a6.4398,6.4398,0,0,0,.0684.9897,2.24078,2.24078,0,0,0,.2617.7803,1.37682,1.37682,0,0,0,.5195.52,1.93066,1.93066,0,0,0,1.67,0,1.42364,1.42364,0,0,0,.5097-.52,2.23989,2.23989,0,0,0,.2598-.7803,6.428,6.428,0,0,0,.0703-.9897v-9.96h2.8809v9.96a5.74914,5.74914,0,0,1-.3809,2.25,3.59926,3.59926,0,0,1-1.0195,1.40958,3.46191,3.46191,0,0,1-1.461.70022,7.89928,7.89928,0,0,1-1.6992.1802,8.87678,8.87678,0,0,1-1.7012-.1602,3.44093,3.44093,0,0,1-1.4589-.6499,3.31275,3.31275,0,0,1-1.0196-1.3901,6.07291,6.07291,0,0,1-.3808-2.3398v-9.96h2.8808Z" transform="translate(-17.291 -16.94338)"/><path class="cls-1" d="M183.9405,98.5078v1.2598h.039a2.80979,2.80979,0,0,1,1.1407-1.1699,3.37245,3.37245,0,0,1,1.5996-.3702,2.72807,2.72807,0,0,1,2.0312.7203,3.24494,3.24494,0,0,1,.709,2.3398v7.98h-2.7598v-7.4199a1.85021,1.85021,0,0,0-.2793-1.17,1.12143,1.12143,0,0,0-.9004-.33q-1.4589,0-1.4609,1.7798v7.1401h-2.7598V98.5078Z" transform="translate(-17.291 -16.94338)"/><path class="cls-1" d="M194.1612,94.8276v2.3599h-2.7618V94.8276Zm0,3.6802v10.7598h-2.7618V98.5078Z" transform="translate(-17.291 -16.94338)"/><path class="cls-1" d="M201.58109,108.1275a2.77141,2.77141,0,0,1-1.0313,1.06,2.995,2.995,0,0,1-1.4101.3003,2.72389,2.72389,0,0,1-2.5-1.3003,8.59926,8.59926,0,0,1-.7988-4.2998,8.78473,8.78473,0,0,1,.7988-4.3301,2.7089,2.7089,0,0,1,2.5-1.3301,2.60468,2.60468,0,0,1,1.3301.31988,3.13348,3.13348,0,0,1,.9902.96042h.041v-4.52h2.7598v14.2798h-2.6406v-1.1401Zm-2.7109-1.5899a1.22673,1.22673,0,0,0,2.3593,0,13.06755,13.06755,0,0,0,0-5.2998,1.22673,1.22673,0,0,0-2.3593,0,13.15774,13.15774,0,0,0,0,5.2998Z" transform="translate(-17.291 -16.94338)"/><path class="cls-1" d="M206.08109,101.54738a3.65585,3.65585,0,0,1,.2988-1.56988,2.7595,2.7595,0,0,1,.8106-1.02,3.22763,3.22763,0,0,1,1.1992-.56,6.17,6.17,0,0,1,1.47071-.17,6.81855,6.81855,0,0,1,2,.2403,2.73275,2.73275,0,0,1,1.17969.6797,2.28512,2.28512,0,0,1,.57031,1.0503,5.5808,5.5808,0,0,1,.15039,1.32958v5.66012a7.58578,7.58578,0,0,0,.0703,1.1802,3.94942,3.94942,0,0,0,.2695.8999H211.46a2.19482,2.19482,0,0,1-.209-.5498c-.0469-.19342-.0898-.3833-.1308-.5703h-.0391a2.35107,2.35107,0,0,1-1.1113,1.0903,4.47846,4.47846,0,0,1-1.6289.25,2.71273,2.71273,0,0,1-1.2207-.25,2.07541,2.07541,0,0,1-.80079-.69042,3.1194,3.1194,0,0,1-.43951-.98978,4.38907,4.38907,0,0,1-.1406-1.0898,4.772,4.772,0,0,1,.16011-1.3101,2.5535,2.5535,0,0,1,.49029-.9399,2.68615,2.68615,0,0,1,.8398-.65042,6.689,6.689,0,0,1,1.2305-.46l1.5605-.41988a1.666,1.666,0,0,0,.8594-.4399,1.227,1.227,0,0,0,.2403-.8199,1.4891,1.4891,0,0,0-.2891-.9702,1.22391,1.22391,0,0,0-.9902-.35012,1.18432,1.18432,0,0,0-.961.38042,1.53458,1.53458,0,0,0-.3203,1.02v.2998h-2.4785Zm4.4394,2.69042a3.875,3.875,0,0,1-.58.1899,2.12314,2.12314,0,0,0-1.2012.59968,1.703,1.703,0,0,0-.3594,1.14012,2.18031,2.18031,0,0,0,.2403,1.06.838.838,0,0,0,.8007.44,2.02384,2.02384,0,0,0,.5801-.0899,1.614,1.614,0,0,0,.5488-.29,1.54458,1.54458,0,0,0,.4102-.52,1.67058,1.67058,0,0,0,.1602-.7598v-2.1201A2.49575,2.49575,0,0,1,210.52049,104.2378Z" transform="translate(-17.291 -16.94338)"/><path class="cls-1" d="M221.20019,108.1275a2.76784,2.76784,0,0,1-1.0293,1.06,3.00559,3.00559,0,0,1-1.4101.3003,2.72178,2.72178,0,0,1-2.5-1.3003,8.59569,8.59569,0,0,1-.8008-4.2998,8.78114,8.78114,0,0,1,.8008-4.3301,2.70682,2.70682,0,0,1,2.5-1.3301,2.60981,2.60981,0,0,1,1.3301.31988,3.17309,3.17309,0,0,1,.9902.96042h.0391v-4.52h2.7597v14.2798h-2.6387v-1.1401Zm-2.709-1.5899a1.12637,1.12637,0,0,0,1.17.8901,1.14031,1.14031,0,0,0,1.1894-.8901,13.15774,13.15774,0,0,0,0-5.2998,1.14031,1.14031,0,0,0-1.1894-.8901,1.12637,1.12637,0,0,0-1.17.8901,13.07227,13.07227,0,0,0,0,5.2998Z" transform="translate(-17.291 -16.94338)"/><path class="cls-1" d="M236.33109,97.5376a1.38741,1.38741,0,0,0-1.3516-.71,1.34368,1.34368,0,0,0-.8886.2901,1.91207,1.91207,0,0,0-.5508.9399,8.02167,8.02167,0,0,0-.2793,1.7002q-.082,1.04955-.0801,2.5698a24.75719,24.75719,0,0,0,.1094,2.6202,5.81823,5.81823,0,0,0,.3398,1.5498,1.43087,1.43087,0,0,0,.5801.7402,1.67271,1.67271,0,0,0,.8105.1899,1.90954,1.90954,0,0,0,.709-.13032,1.19959,1.19959,0,0,0,.5703-.52,3.38458,3.38458,0,0,0,.3809-1.09968,10.18374,10.18374,0,0,0,.13871-1.8701h2.88079a12.97675,12.97675,0,0,1-.1797,2.2002,5.00772,5.00772,0,0,1-.6699,1.8198,3.33344,3.33344,0,0,1-1.3808,1.21978,5.22607,5.22607,0,0,1-2.3106.44042,5.43317,5.43317,0,0,1-2.5781-.52,3.50581,3.50581,0,0,1-1.47069-1.5,6.60167,6.60167,0,0,1-.66021-2.3403,29.89368,29.89368,0,0,1,0-5.9898,6.621,6.621,0,0,1,.66021-2.3501,3.69077,3.69077,0,0,1,1.47069-1.5298,5.178,5.178,0,0,1,2.5781-.5503,4.98957,4.98957,0,0,1,2.4317.5,3.42387,3.42387,0,0,1,1.33,1.27,4.38945,4.38945,0,0,1,.5489,1.6602,13.49614,13.49614,0,0,1,.1113,1.6699h-2.8809A5.19617,5.19617,0,0,0,236.33109,97.5376Z" transform="translate(-17.291 -16.94338)"/><path class="cls-1" d="M246.74119,108.0078a2.61967,2.61967,0,0,1-1.1406,1.1397,3.61953,3.61953,0,0,1-1.5996.3403,2.79658,2.79658,0,0,1-2.0312-.69042,3.13275,3.13275,0,0,1-.709-2.30958v-7.98h2.7597v7.4199a1.85164,1.85164,0,0,0,.2793,1.17,1.12066,1.12066,0,0,0,.9004.33q1.45905,0,1.461-1.7802V98.5078h2.7597v10.7598h-2.6406v-1.2598Z" transform="translate(-17.291 -16.94338)"/><path class="cls-1" d="M251.24119,101.54738a3.65578,3.65578,0,0,1,.2989-1.56988,2.75927,2.75927,0,0,1,.8105-1.02,3.22912,3.22912,0,0,1,1.1992-.56,6.17056,6.17056,0,0,1,1.4707-.17,6.81846,6.81846,0,0,1,2,.2403,2.73207,2.73207,0,0,1,1.1797.6797,2.2851,2.2851,0,0,1,.5703,1.0503,5.57514,5.57514,0,0,1,.1504,1.32958v5.66012a7.59957,7.59957,0,0,0,.0703,1.1802,3.95,3.95,0,0,0,.2696.8999h-2.6406a2.19521,2.19521,0,0,1-.209-.5498c-.0469-.19342-.0899-.3833-.1309-.5703h-.0391a2.35107,2.35107,0,0,1-1.1113,1.0903,4.47809,4.47809,0,0,1-1.6289.25,2.713,2.713,0,0,1-1.2207-.25,2.07624,2.07624,0,0,1-.8008-.69042,3.1172,3.1172,0,0,1-.4394-.98978,4.38454,4.38454,0,0,1-.14069-1.0898,4.76831,4.76831,0,0,1,.16019-1.3101,2.55351,2.55351,0,0,1,.4902-.9399,2.68532,2.68532,0,0,1,.8399-.65042,6.68594,6.68594,0,0,1,1.2305-.46l1.5605-.41988a1.66682,1.66682,0,0,0,.8594-.4399,1.22749,1.22749,0,0,0,.2402-.8199,1.48853,1.48853,0,0,0-.2891-.9702,1.22377,1.22377,0,0,0-.9902-.35012,1.18424,1.18424,0,0,0-.9609.38042,1.53458,1.53458,0,0,0-.3203,1.02v.2998h-2.4786Zm4.4395,2.69042a3.87922,3.87922,0,0,1-.5801.1899,2.12375,2.12375,0,0,0-1.20119.59968,1.70347,1.70347,0,0,0-.35931,1.14012,2.18143,2.18143,0,0,0,.2402,1.06.83828.83828,0,0,0,.8008.44,2.02436,2.02436,0,0,0,.5801-.0899,1.61387,1.61387,0,0,0,.5488-.29,1.547,1.547,0,0,0,.4102-.52,1.67072,1.67072,0,0,0,.1601-.7598v-2.1201A2.49535,2.49535,0,0,1,255.68069,104.2378Z" transform="translate(-17.291 -16.94338)"/><path class="cls-1" d="M263.74119,98.5078v11.44a4.35533,4.35533,0,0,1-.1503,1.1997,1.93237,1.93237,0,0,1-.5098.8701,2.30356,2.30356,0,0,1-.97069.52978,5.48722,5.48722,0,0,1-1.52931.18012c-.1602,0-.3281-.0034-.5-.0097-.1738-.0069-.3613-.0171-.5606-.0303v-2a.70048.70048,0,0,0,.2207.04h.2188q.67965,0,.8496-.41012a3.45553,3.45553,0,0,0,.1699-1.25V98.5078Zm0-3.6802v2.3599h-2.7617V94.8276Z" transform="translate(-17.291 -16.94338)"/><path class="cls-1" d="M268.54009,94.8276v2.3599h-2.7598V94.8276Zm0,3.6802v10.7598h-2.7598V98.5078Z" transform="translate(-17.291 -16.94338)"/><path class="cls-1" d="M273.12019,98.5078v1.09958h.039a3.19391,3.19391,0,0,1,1.1699-1.06,3.48782,3.48782,0,0,1,1.5508-.31988,2.807,2.807,0,0,1,1.6094.44,2.13447,2.13447,0,0,1,.87111,1.2803h.039a2.44166,2.44166,0,0,1,1.03129-1.2901,3.19541,3.19541,0,0,1,1.6895-.4302,2.41807,2.41807,0,0,1,2.02921.8301,3.80583,3.80583,0,0,1,.65039,2.3902v7.8198h-2.7597v-7.52a1.82191,1.82191,0,0,0-.25-1.0401.93827.93827,0,0,0-.8301-.3598,1.33851,1.33851,0,0,0-1.0508.4399,2.07945,2.07945,0,0,0-.3887,1.3999v7.0801h-2.7597v-7.52a1.82191,1.82191,0,0,0-.25-1.0401.94059.94059,0,0,0-.8301-.3598,1.33311,1.33311,0,0,0-1.0508.4399,2.0796,2.0796,0,0,0-.3906,1.3999v7.0801h-2.7598V98.5078Z" transform="translate(-17.291 -16.94338)"/><path class="cls-1" d="M285.62019,101.54738a3.62654,3.62654,0,0,1,.3007-1.56988,2.73692,2.73692,0,0,1,.8086-1.02,3.22368,3.22368,0,0,1,1.2012-.56,6.14163,6.14163,0,0,1,1.46871-.17,6.8,6.8,0,0,1,2,.2403,2.74011,2.74011,0,0,1,1.18169.6797,2.28175,2.28175,0,0,1,.56831,1.0503,5.48,5.48,0,0,1,.15039,1.32958v5.66012a7.5835,7.5835,0,0,0,.0704,1.1802,4.15113,4.15113,0,0,0,.2695.8999H291.001a2.27967,2.27967,0,0,1-.2109-.5498q-.07035-.29013-.1289-.5703h-.041a2.34853,2.34853,0,0,1-1.1094,1.0903,4.48971,4.48971,0,0,1-1.6309.25,2.69821,2.69821,0,0,1-1.2187-.25,2.06181,2.06181,0,0,1-.80079-.69042,3.07562,3.07562,0,0,1-.43951-.98978,4.38907,4.38907,0,0,1-.1406-1.0898,4.69261,4.69261,0,0,1,.1602-1.3101,2.49532,2.49532,0,0,1,.4902-.9399,2.66335,2.66335,0,0,1,.8398-.65042,6.689,6.689,0,0,1,1.2305-.46l1.5586-.41988a1.66519,1.66519,0,0,0,.8613-.4399,1.227,1.227,0,0,0,.2403-.8199,1.47881,1.47881,0,0,0-.291-.9702,1.22414,1.22414,0,0,0-.9903-.35012,1.18272,1.18272,0,0,0-.959.38042,1.52451,1.52451,0,0,0-.3203,1.02v.2998h-2.4804Zm4.4394,2.69042a3.87551,3.87551,0,0,1-.5801.1899,2.12336,2.12336,0,0,0-1.1992.59968,1.69312,1.69312,0,0,0-.3594,1.14012,2.18031,2.18031,0,0,0,.2403,1.06.83515.83515,0,0,0,.7988.44,2.00364,2.00364,0,0,0,.5801-.0899,1.6416,1.6416,0,0,0,.5508-.29,1.54557,1.54557,0,0,0,.4101-.52,1.69587,1.69587,0,0,0,.1602-.7598v-2.1201A2.50726,2.50726,0,0,1,290.05959,104.2378Z" transform="translate(-17.291 -16.94338)"/><path class="cls-1" d="M298.12019,94.9878v14.2798H295.3604V94.9878Z" transform="translate(-17.291 -16.94338)"/><path class="cls-1" d="M302.70019,98.5078v1.1397h.0391a3.02023,3.02023,0,0,1,1.0312-1.0899,2.76992,2.76992,0,0,1,1.4102-.3301,2.70891,2.70891,0,0,1,2.5,1.3301,8.78473,8.78473,0,0,1,.7988,4.3301,8.59926,8.59926,0,0,1-.7988,4.2998,2.72391,2.72391,0,0,1-2.5,1.3003,2.55162,2.55162,0,0,1-2.32029-1.2202h-.041v4.4599h-2.75981V98.5078Zm.3907,8.0298a1.22673,1.22673,0,0,0,2.3593,0,13.15774,13.15774,0,0,0,0-5.2998,1.22673,1.22673,0,0,0-2.3593,0,13.068,13.068,0,0,0,0,5.2998Z" transform="translate(-17.291 -16.94338)"/><path class="cls-1" d="M310.04009,101.54738a3.625,3.625,0,0,1,.3008-1.56988,2.73562,2.73562,0,0,1,.80851-1.02,3.22349,3.22349,0,0,1,1.20119-.56,6.14187,6.14187,0,0,1,1.46881-.17,6.801,6.801,0,0,1,2,.2403,2.73971,2.73971,0,0,1,1.18159.6797,2.282,2.282,0,0,1,.56841,1.0503,5.485,5.485,0,0,1,.15039,1.32958v5.66012a7.58578,7.58578,0,0,0,.0703,1.1802,4.15113,4.15113,0,0,0,.2695.8999h-2.6387a2.28382,2.28382,0,0,1-.2109-.5498q-.07035-.29013-.1289-.5703h-.041a2.3481,2.3481,0,0,1-1.1094,1.0903,4.48934,4.48934,0,0,1-1.6309.25,2.69851,2.69851,0,0,1-1.2187-.25,2.06192,2.06192,0,0,1-.8008-.69042,3.07563,3.07563,0,0,1-.4394-.98978,4.38456,4.38456,0,0,1-.1407-1.0898,4.69594,4.69594,0,0,1,.16021-1.3101,2.49658,2.49658,0,0,1,.49019-.9399,2.66379,2.66379,0,0,1,.8399-.65042,6.68751,6.68751,0,0,1,1.2304-.46l1.5586-.41988a1.666,1.666,0,0,0,.8614-.4399,1.22749,1.22749,0,0,0,.2402-.8199,1.47876,1.47876,0,0,0-.291-.9702,1.22414,1.22414,0,0,0-.9903-.35012,1.18251,1.18251,0,0,0-.9589.38042,1.524,1.524,0,0,0-.3204,1.02v.2998h-2.4804Zm4.4394,2.69042a3.87616,3.87616,0,0,1-.58009.1899,2.124,2.124,0,0,0-1.19921.59968,1.69309,1.69309,0,0,0-.3593,1.14012,2.18031,2.18031,0,0,0,.2402,1.06.83524.83524,0,0,0,.7988.44,2.00359,2.00359,0,0,0,.5801-.0899,1.6416,1.6416,0,0,0,.5508-.29,1.54557,1.54557,0,0,0,.4101-.52,1.69574,1.69574,0,0,0,.1602-.7598v-2.1201A2.50707,2.50707,0,0,1,314.47949,104.2378Z" transform="translate(-17.291 -16.94338)"/><polygon class="cls-1" points="148.058 92.324 147.058 92.324 147.058 0.303 148.058 0.303 148.058 92.324 148.058 92.324"/></g></svg>