<?xml version="1.0" standalone="no"?><svg xmlns="http://www.w3.org/2000/svg" viewBox="0 0 1440 320"><path fill="#ff5500" fill-opacity="1" d="M0,32L0,128L36.9,128L36.9,320L73.8,320L73.8,224L110.8,224L110.8,32L147.7,32L147.7,0L184.6,0L184.6,128L221.5,128L221.5,288L258.5,288L258.5,224L295.4,224L295.4,192L332.3,192L332.3,128L369.2,128L369.2,288L406.2,288L406.2,128L443.1,128L443.1,288L480,288L480,32L516.9,32L516.9,160L553.8,160L553.8,192L590.8,192L590.8,128L627.7,128L627.7,64L664.6,64L664.6,96L701.5,96L701.5,128L738.5,128L738.5,160L775.4,160L775.4,32L812.3,32L812.3,192L849.2,192L849.2,32L886.2,32L886.2,64L923.1,64L923.1,224L960,224L960,128L996.9,128L996.9,320L1033.8,320L1033.8,224L1070.8,224L1070.8,128L1107.7,128L1107.7,224L1144.6,224L1144.6,96L1181.5,96L1181.5,96L1218.5,96L1218.5,256L1255.4,256L1255.4,32L1292.3,32L1292.3,288L1329.2,288L1329.2,288L1366.2,288L1366.2,160L1403.1,160L1403.1,128L1440,128L1440,320L1403.1,320L1403.1,320L1366.2,320L1366.2,320L1329.2,320L1329.2,320L1292.3,320L1292.3,320L1255.4,320L1255.4,320L1218.5,320L1218.5,320L1181.5,320L1181.5,320L1144.6,320L1144.6,320L1107.7,320L1107.7,320L1070.8,320L1070.8,320L1033.8,320L1033.8,320L996.9,320L996.9,320L960,320L960,320L923.1,320L923.1,320L886.2,320L886.2,320L849.2,320L849.2,320L812.3,320L812.3,320L775.4,320L775.4,320L738.5,320L738.5,320L701.5,320L701.5,320L664.6,320L664.6,320L627.7,320L627.7,320L590.8,320L590.8,320L553.8,320L553.8,320L516.9,320L516.9,320L480,320L480,320L443.1,320L443.1,320L406.2,320L406.2,320L369.2,320L369.2,320L332.3,320L332.3,320L295.4,320L295.4,320L258.5,320L258.5,320L221.5,320L221.5,320L184.6,320L184.6,320L147.7,320L147.7,320L110.8,320L110.8,320L73.8,320L73.8,320L36.9,320L36.9,320L0,320L0,320Z"></path></svg>